Coordinates
version=1
nRows=27
nColumns=12
inDegrees=yes

Units are S.I. units (second, meters, Newtons, ...)
Angles are in degrees

endheader
time	SC_y	SC_z	SC_x	AC_y	AC_z	AC_x	GH_y	GH_z	GH_yy	EL_x	PS_y
       0.0              -58.94          34.45          76.41          67.39          6.575          -6.03         -133.6          15.51          39.79          41.26          65.66
   0.04184              -58.94          34.45           76.4          67.39          6.571         -6.027         -133.6          15.52          39.81          41.26          65.66
   0.08368              -58.93          34.45          76.39          67.39          6.567         -6.025         -133.5          15.54          39.82          41.27          65.66
    0.1255              -58.93          34.45          76.38          67.38          6.563         -6.022         -133.5          15.55          39.84          41.27          65.66
    0.1674              -58.92          34.45          76.37          67.38          6.559         -6.019         -133.4          15.56          39.86          41.28          65.66
    0.2092              -58.92          34.45          76.36          67.38          6.554         -6.016         -133.4          15.57          39.88          41.28          65.66
    0.2511              -58.92          34.46          76.35          67.37          6.549         -6.012         -133.3          15.59           39.9          41.29          65.66
    0.2929              -58.91          34.46          76.34          67.37          6.544         -6.009         -133.3           15.6          39.92          41.29          65.66
    0.3347              -58.91          34.46          76.32          67.36          6.538         -6.005         -133.2          15.62          39.95           41.3          65.66
    0.3766               -58.9          34.46          76.31          67.36          6.532         -6.001         -133.1          15.64          39.97           41.3          65.66
    0.4184               -58.9          34.46          76.29          67.35          6.526         -5.996         -133.0          15.66           40.0          41.31          65.67
    0.4603              -58.89          34.46          76.27          67.35          6.519         -5.992         -133.0          15.68          40.03          41.32          65.67
    0.5021              -58.88          34.46          76.26          67.34          6.511         -5.987         -132.9           15.7          40.06          41.33          65.67
    0.5439              -58.88          34.47          76.23          67.34          6.503         -5.981         -132.8          15.73          40.09          41.33          65.67
    0.5858              -58.87          34.47          76.21          67.33          6.494         -5.975         -132.7          15.75          40.13          41.34          65.67
    0.6276              -58.86          34.47          76.19          67.32          6.484         -5.969         -132.6          15.78          40.17          41.35          65.67
    0.6695              -58.85          34.47          76.16          67.31          6.474         -5.961         -132.5          15.81          40.21          41.36          65.67
    0.7113              -58.84          34.47          76.13           67.3          6.462         -5.954         -132.3          15.85          40.26          41.38          65.68
    0.7532              -58.83          34.48           76.1          67.29           6.45         -5.945         -132.2          15.88          40.31          41.39          65.68
     0.795              -58.82          34.48          76.07          67.28          6.436         -5.936         -132.0          15.92          40.37           41.4          65.68
    0.8368              -58.81          34.48          76.03          67.27          6.421         -5.926         -131.8          15.97          40.43          41.42          65.68
    0.8787              -58.79          34.48          75.99          67.26          6.405         -5.915         -131.7          16.01           40.5          41.43          65.69
    0.9205              -58.78          34.49          75.95          67.25          6.387         -5.903         -131.4          16.07          40.58          41.45          65.69
    0.9624              -58.76          34.49           75.9          67.23          6.367         -5.889         -131.2          16.13          40.66          41.47          65.69
     1.004              -58.74           34.5          75.84          67.21          6.344         -5.874         -131.0          16.19          40.76           41.5           65.7
     1.046              -58.72           34.5          75.78          67.19          6.319         -5.857         -130.7          16.27          40.86          41.52           65.7
     1.088              -58.69          34.51          75.71          67.17          6.291         -5.838         -130.3          16.35          40.98          41.55          65.71
